<?xml version="1.0" encoding="UTF-8" ?>
<svg version="1.1" width="40" height="40" xmlns="http://www.w3.org/2000/svg" shape-rendering="crispEdges">
<rect x="14" y="13" width="9" height="1" fill="#FFFFFF" />
<rect x="11" y="14" width="3" height="1" fill="#FFFFFF" />
<rect x="23" y="14" width="3" height="1" fill="#FFFFFF" />
<rect x="10" y="15" width="1" height="1" fill="#FFFFFF" />
<rect x="26" y="15" width="5" height="1" fill="#FFFFFF" />
<rect x="9" y="16" width="1" height="2" fill="#FFFFFF" />
<rect x="31" y="16" width="2" height="1" fill="#FFFFFF" />
<rect x="33" y="17" width="1" height="1" fill="#FFFFFF" />
<rect x="8" y="18" width="1" height="2" fill="#FFFFFF" />
<rect x="34" y="18" width="1" height="2" fill="#FFFFFF" />
<rect x="6" y="20" width="2" height="1" fill="#FFFFFF" />
<rect x="35" y="20" width="1" height="1" fill="#FFFFFF" />
<rect x="5" y="21" width="1" height="1" fill="#FFFFFF" />
<rect x="18" y="21" width="9" height="1" fill="#F7F7F7" />
<rect x="36" y="21" width="1" height="7" fill="#FFFFFF" />
<rect x="4" y="22" width="1" height="1" fill="#FFFFFF" />
<rect x="15" y="22" width="3" height="1" fill="#F7F7F7" />
<rect x="18" y="22" width="9" height="1" fill="#000000" />
<rect x="27" y="22" width="2" height="1" fill="#F7F7F7" />
<rect x="3" y="23" width="1" height="8" fill="#FFFFFF" />
<rect x="13" y="23" width="2" height="1" fill="#F7F7F7" />
<rect x="15" y="23" width="3" height="4" fill="#000000" />
<rect x="18" y="23" width="9" height="1" fill="#F7F7F7" />
<rect x="27" y="23" width="2" height="5" fill="#000000" />
<rect x="29" y="23" width="1" height="1" fill="#F7F7F7" />
<rect x="12" y="24" width="1" height="1" fill="#F7F7F7" />
<rect x="13" y="24" width="2" height="3" fill="#000000" />
<rect x="18" y="24" width="9" height="3" fill="#000000" />
<rect x="29" y="24" width="1" height="4" fill="#000000" />
<rect x="30" y="24" width="1" height="1" fill="#F7F7F7" />
<rect x="11" y="25" width="1" height="1" fill="#F7F7F7" />
<rect x="12" y="25" width="1" height="2" fill="#000000" />
<rect x="30" y="25" width="1" height="2" fill="#000000" />
<rect x="31" y="25" width="1" height="2" fill="#F7F7F7" />
<rect x="10" y="26" width="1" height="1" fill="#F7F7F7" />
<rect x="11" y="26" width="1" height="2" fill="#000000" />
<rect x="9" y="27" width="1" height="3" fill="#F7F7F7" />
<rect x="10" y="27" width="1" height="3" fill="#000000" />
<rect x="12" y="27" width="4" height="1" fill="#F7F7F7" />
<rect x="16" y="27" width="2" height="1" fill="#000000" />
<rect x="18" y="27" width="9" height="1" fill="#F7F7F7" />
<rect x="30" y="27" width="1" height="1" fill="#F7F7F7" />
<rect x="11" y="28" width="4" height="1" fill="#F7F7F7" />
<rect x="15" y="28" width="1" height="1" fill="#000000" />
<rect x="16" y="28" width="2" height="1" fill="#F7F7F7" />
<rect x="27" y="28" width="3" height="1" fill="#F7F7F7" />
<rect x="35" y="28" width="1" height="1" fill="#FFFFFF" />
<rect x="11" y="29" width="3" height="1" fill="#F7F7F7" />
<rect x="14" y="29" width="1" height="1" fill="#000000" />
<rect x="15" y="29" width="1" height="1" fill="#F7F7F7" />
<rect x="34" y="29" width="1" height="1" fill="#FFFFFF" />
<rect x="10" y="30" width="1" height="1" fill="#F7F7F7" />
<rect x="11" y="30" width="3" height="1" fill="#000000" />
<rect x="14" y="30" width="1" height="1" fill="#F7F7F7" />
<rect x="32" y="30" width="2" height="1" fill="#FFFFFF" />
<rect x="4" y="31" width="1" height="1" fill="#FFFFFF" />
<rect x="11" y="31" width="3" height="1" fill="#F7F7F7" />
<rect x="30" y="31" width="2" height="1" fill="#FFFFFF" />
<rect x="5" y="32" width="1" height="1" fill="#FFFFFF" />
<rect x="28" y="32" width="2" height="1" fill="#FFFFFF" />
<rect x="6" y="33" width="1" height="1" fill="#FFFFFF" />
<rect x="26" y="33" width="2" height="1" fill="#FFFFFF" />
<rect x="7" y="34" width="9" height="1" fill="#FFFFFF" />
<rect x="22" y="34" width="4" height="1" fill="#FFFFFF" />
<rect x="16" y="35" width="6" height="1" fill="#FFFFFF" />
</svg>