<?xml version="1.0" encoding="UTF-8" ?>
<svg version="1.1" width="40" height="40" xmlns="http://www.w3.org/2000/svg" shape-rendering="crispEdges">
<rect x="14" y="13" width="9" height="1" fill="#FFFFFF" />
<rect x="11" y="14" width="3" height="1" fill="#FFFFFF" />
<rect x="14" y="14" width="9" height="13" fill="#000000" />
<rect x="23" y="14" width="3" height="1" fill="#FFFFFF" />
<rect x="10" y="15" width="1" height="1" fill="#FFFFFF" />
<rect x="11" y="15" width="3" height="19" fill="#000000" />
<rect x="23" y="15" width="3" height="13" fill="#000000" />
<rect x="26" y="15" width="5" height="1" fill="#FFFFFF" />
<rect x="9" y="16" width="1" height="2" fill="#FFFFFF" />
<rect x="10" y="16" width="1" height="18" fill="#000000" />
<rect x="26" y="16" width="5" height="11" fill="#000000" />
<rect x="31" y="16" width="2" height="1" fill="#FFFFFF" />
<rect x="31" y="17" width="2" height="13" fill="#000000" />
<rect x="33" y="17" width="1" height="1" fill="#FFFFFF" />
<rect x="8" y="18" width="1" height="2" fill="#FFFFFF" />
<rect x="9" y="18" width="1" height="16" fill="#000000" />
<rect x="33" y="18" width="1" height="12" fill="#000000" />
<rect x="34" y="18" width="1" height="2" fill="#FFFFFF" />
<rect x="6" y="20" width="2" height="1" fill="#FFFFFF" />
<rect x="8" y="20" width="1" height="14" fill="#000000" />
<rect x="34" y="20" width="1" height="9" fill="#000000" />
<rect x="35" y="20" width="1" height="1" fill="#FFFFFF" />
<rect x="5" y="21" width="1" height="1" fill="#FFFFFF" />
<rect x="6" y="21" width="2" height="12" fill="#000000" />
<rect x="35" y="21" width="1" height="7" fill="#000000" />
<rect x="36" y="21" width="1" height="7" fill="#FFFFFF" />
<rect x="4" y="22" width="1" height="1" fill="#FFFFFF" />
<rect x="5" y="22" width="1" height="10" fill="#000000" />
<rect x="3" y="23" width="1" height="8" fill="#FFFFFF" />
<rect x="4" y="23" width="1" height="8" fill="#000000" />
<rect x="14" y="27" width="1" height="7" fill="#000000" />
<rect x="15" y="27" width="2" height="1" fill="#FFFFFF" />
<rect x="17" y="27" width="6" height="2" fill="#000000" />
<rect x="26" y="27" width="1" height="1" fill="#FFFFFF" />
<rect x="27" y="27" width="4" height="4" fill="#000000" />
<rect x="15" y="28" width="1" height="6" fill="#000000" />
<rect x="16" y="28" width="1" height="1" fill="#FFFFFF" />
<rect x="23" y="28" width="1" height="1" fill="#000000" />
<rect x="24" y="28" width="2" height="1" fill="#FFFFFF" />
<rect x="26" y="28" width="1" height="5" fill="#000000" />
<rect x="35" y="28" width="1" height="1" fill="#FFFFFF" />
<rect x="16" y="29" width="1" height="6" fill="#000000" />
<rect x="17" y="29" width="7" height="1" fill="#FFFFFF" />
<rect x="24" y="29" width="2" height="5" fill="#000000" />
<rect x="34" y="29" width="1" height="1" fill="#FFFFFF" />
<rect x="17" y="30" width="7" height="4" fill="#000000" />
<rect x="31" y="30" width="1" height="1" fill="#000000" />
<rect x="32" y="30" width="2" height="1" fill="#FFFFFF" />
<rect x="4" y="31" width="1" height="1" fill="#FFFFFF" />
<rect x="27" y="31" width="3" height="1" fill="#000000" />
<rect x="30" y="31" width="2" height="1" fill="#FFFFFF" />
<rect x="5" y="32" width="1" height="1" fill="#FFFFFF" />
<rect x="27" y="32" width="1" height="1" fill="#000000" />
<rect x="28" y="32" width="2" height="1" fill="#FFFFFF" />
<rect x="6" y="33" width="1" height="1" fill="#FFFFFF" />
<rect x="7" y="33" width="1" height="1" fill="#000000" />
<rect x="26" y="33" width="2" height="1" fill="#FFFFFF" />
<rect x="7" y="34" width="9" height="1" fill="#FFFFFF" />
<rect x="17" y="34" width="5" height="1" fill="#000000" />
<rect x="22" y="34" width="4" height="1" fill="#FFFFFF" />
<rect x="16" y="35" width="6" height="1" fill="#FFFFFF" />
</svg>