<?xml version="1.0" encoding="UTF-8" ?>
<svg version="1.1" width="64" height="64" xmlns="http://www.w3.org/2000/svg" shape-rendering="crispEdges">
<rect x="16" y="18" width="20" height="2" fill="#3B2915" />
<rect x="8" y="20" width="8" height="2" fill="#3B2915" />
<rect x="16" y="20" width="2" height="2" fill="#B0735D" />
<rect x="18" y="20" width="6" height="10" fill="#DDC4A9" />
<rect x="24" y="20" width="6" height="2" fill="#B0735D" />
<rect x="30" y="20" width="18" height="2" fill="#3B2915" />
<rect x="4" y="22" width="4" height="2" fill="#3B2915" />
<rect x="8" y="22" width="2" height="2" fill="#B0735D" />
<rect x="10" y="22" width="8" height="8" fill="#DDC4A9" />
<rect x="24" y="22" width="18" height="8" fill="#DDC4A9" />
<rect x="42" y="22" width="6" height="2" fill="#B0735D" />
<rect x="48" y="22" width="12" height="2" fill="#3B2915" />
<rect x="2" y="24" width="2" height="16" fill="#3B2915" />
<rect x="4" y="24" width="6" height="12" fill="#DDC4A9" />
<rect x="42" y="24" width="18" height="6" fill="#DDC4A9" />
<rect x="60" y="24" width="2" height="8" fill="#3B2915" />
<rect x="10" y="30" width="6" height="2" fill="#DDC4A9" />
<rect x="16" y="30" width="18" height="2" fill="#B0735D" />
<rect x="34" y="30" width="10" height="2" fill="#3B2915" />
<rect x="44" y="30" width="6" height="2" fill="#B0735D" />
<rect x="50" y="30" width="8" height="2" fill="#DDC4A9" />
<rect x="58" y="30" width="2" height="2" fill="#B0735D" />
<rect x="10" y="32" width="2" height="12" fill="#DDC4A9" />
<rect x="12" y="32" width="8" height="2" fill="#B0735D" />
<rect x="20" y="32" width="2" height="2" fill="#3B2915" />
<rect x="22" y="32" width="8" height="2" fill="#B0735D" />
<rect x="30" y="32" width="4" height="2" fill="#3B2915" />
<rect x="34" y="32" width="2" height="8" fill="#B0735D" />
<rect x="36" y="32" width="2" height="10" fill="#3B2915" />
<rect x="38" y="32" width="6" height="2" fill="#B0735D" />
<rect x="44" y="32" width="16" height="2" fill="#3B2915" />
<rect x="12" y="34" width="4" height="12" fill="#DDC4A9" />
<rect x="16" y="34" width="6" height="2" fill="#B0735D" />
<rect x="22" y="34" width="10" height="4" fill="#3B2915" />
<rect x="32" y="34" width="2" height="6" fill="#B0735D" />
<rect x="38" y="34" width="4" height="2" fill="#B0735D" />
<rect x="42" y="34" width="4" height="14" fill="#DDC4A9" />
<rect x="46" y="34" width="2" height="2" fill="#3B2915" />
<rect x="4" y="36" width="2" height="4" fill="#B0735D" />
<rect x="6" y="36" width="4" height="6" fill="#DDC4A9" />
<rect x="16" y="36" width="2" height="10" fill="#DDC4A9" />
<rect x="18" y="36" width="4" height="2" fill="#B0735D" />
<rect x="38" y="36" width="4" height="6" fill="#DDC4A9" />
<rect x="46" y="36" width="2" height="4" fill="#B0735D" />
<rect x="48" y="36" width="2" height="12" fill="#3B2915" />
<rect x="18" y="38" width="4" height="10" fill="#DDC4A9" />
<rect x="22" y="38" width="2" height="2" fill="#B0735D" />
<rect x="24" y="38" width="8" height="2" fill="#3B2915" />
<rect x="4" y="40" width="2" height="2" fill="#3B2915" />
<rect x="22" y="40" width="4" height="16" fill="#DDC4A9" />
<rect x="26" y="40" width="2" height="2" fill="#3B2915" />
<rect x="28" y="40" width="4" height="2" fill="#B0735D" />
<rect x="32" y="40" width="4" height="2" fill="#3B2915" />
<rect x="46" y="40" width="2" height="6" fill="#DDC4A9" />
<rect x="6" y="42" width="2" height="2" fill="#3B2915" />
<rect x="8" y="42" width="2" height="2" fill="#DDC4A9" />
<rect x="26" y="42" width="2" height="16" fill="#DDC4A9" />
<rect x="28" y="42" width="4" height="2" fill="#3B2915" />
<rect x="32" y="42" width="2" height="2" fill="#B0735D" />
<rect x="34" y="42" width="4" height="6" fill="#DDC4A9" />
<rect x="38" y="42" width="2" height="2" fill="#3B2915" />
<rect x="40" y="42" width="2" height="2" fill="#DDC4A9" />
<rect x="8" y="44" width="2" height="2" fill="#3B2915" />
<rect x="10" y="44" width="2" height="2" fill="#B0735D" />
<rect x="28" y="44" width="2" height="2" fill="#3B2915" />
<rect x="30" y="44" width="2" height="2" fill="#B0735D" />
<rect x="32" y="44" width="2" height="4" fill="#DDC4A9" />
<rect x="38" y="44" width="2" height="4" fill="#DDC4A9" />
<rect x="40" y="44" width="2" height="2" fill="#B0735D" />
<rect x="10" y="46" width="4" height="2" fill="#3B2915" />
<rect x="14" y="46" width="4" height="2" fill="#B0735D" />
<rect x="28" y="46" width="2" height="4" fill="#B0735D" />
<rect x="30" y="46" width="2" height="12" fill="#3B2915" />
<rect x="40" y="46" width="2" height="2" fill="#DDC4A9" />
<rect x="46" y="46" width="2" height="2" fill="#B0735D" />
<rect x="14" y="48" width="2" height="2" fill="#3B2915" />
<rect x="16" y="48" width="4" height="2" fill="#B0735D" />
<rect x="20" y="48" width="2" height="4" fill="#DDC4A9" />
<rect x="32" y="48" width="10" height="2" fill="#B0735D" />
<rect x="42" y="48" width="6" height="2" fill="#3B2915" />
<rect x="16" y="50" width="2" height="2" fill="#3B2915" />
<rect x="18" y="50" width="2" height="2" fill="#B0735D" />
<rect x="28" y="50" width="2" height="6" fill="#DDC4A9" />
<rect x="32" y="50" width="10" height="2" fill="#3B2915" />
<rect x="18" y="52" width="2" height="2" fill="#3B2915" />
<rect x="20" y="52" width="2" height="2" fill="#B0735D" />
<rect x="20" y="54" width="2" height="2" fill="#3B2915" />
<rect x="22" y="56" width="2" height="2" fill="#3B2915" />
<rect x="24" y="56" width="2" height="2" fill="#DDC4A9" />
<rect x="28" y="56" width="2" height="2" fill="#B0735D" />
<rect x="24" y="58" width="6" height="2" fill="#3B2915" />
</svg>