<?xml version="1.0" encoding="UTF-8" ?>
<svg version="1.1" width="64" height="64" xmlns="http://www.w3.org/2000/svg" shape-rendering="crispEdges">
<rect x="24" y="2" width="16" height="2" fill="#3B2915" />
<rect x="22" y="4" width="2" height="4" fill="#3B2915" />
<rect x="24" y="4" width="12" height="8" fill="#DDC4A9" />
<rect x="36" y="4" width="4" height="2" fill="#B0735D" />
<rect x="40" y="4" width="2" height="2" fill="#3B2915" />
<rect x="36" y="6" width="6" height="12" fill="#DDC4A9" />
<rect x="42" y="6" width="2" height="2" fill="#3B2915" />
<rect x="20" y="8" width="2" height="8" fill="#3B2915" />
<rect x="22" y="8" width="2" height="2" fill="#B0735D" />
<rect x="42" y="8" width="2" height="20" fill="#DDC4A9" />
<rect x="44" y="8" width="2" height="2" fill="#3B2915" />
<rect x="22" y="10" width="2" height="32" fill="#DDC4A9" />
<rect x="44" y="10" width="2" height="2" fill="#B0735D" />
<rect x="46" y="10" width="2" height="4" fill="#3B2915" />
<rect x="24" y="12" width="8" height="4" fill="#DDC4A9" />
<rect x="32" y="12" width="2" height="8" fill="#B0735D" />
<rect x="34" y="12" width="2" height="4" fill="#DDC4A9" />
<rect x="44" y="12" width="2" height="16" fill="#DDC4A9" />
<rect x="46" y="14" width="2" height="4" fill="#B0735D" />
<rect x="48" y="14" width="2" height="2" fill="#3B2915" />
<rect x="18" y="16" width="2" height="20" fill="#3B2915" />
<rect x="20" y="16" width="2" height="2" fill="#B0735D" />
<rect x="24" y="16" width="6" height="44" fill="#DDC4A9" />
<rect x="30" y="16" width="2" height="18" fill="#B0735D" />
<rect x="34" y="16" width="2" height="6" fill="#B0735D" />
<rect x="48" y="16" width="2" height="4" fill="#B0735D" />
<rect x="50" y="16" width="2" height="2" fill="#3B2915" />
<rect x="20" y="18" width="2" height="6" fill="#DDC4A9" />
<rect x="36" y="18" width="2" height="4" fill="#B0735D" />
<rect x="38" y="18" width="4" height="4" fill="#DDC4A9" />
<rect x="46" y="18" width="2" height="10" fill="#DDC4A9" />
<rect x="50" y="18" width="2" height="2" fill="#B0735D" />
<rect x="52" y="18" width="2" height="2" fill="#3B2915" />
<rect x="32" y="20" width="2" height="2" fill="#3B2915" />
<rect x="48" y="20" width="4" height="8" fill="#DDC4A9" />
<rect x="52" y="20" width="2" height="2" fill="#B0735D" />
<rect x="54" y="20" width="2" height="2" fill="#3B2915" />
<rect x="32" y="22" width="2" height="8" fill="#B0735D" />
<rect x="34" y="22" width="4" height="10" fill="#3B2915" />
<rect x="38" y="22" width="2" height="2" fill="#B0735D" />
<rect x="40" y="22" width="2" height="4" fill="#DDC4A9" />
<rect x="52" y="22" width="4" height="8" fill="#DDC4A9" />
<rect x="56" y="22" width="2" height="2" fill="#3B2915" />
<rect x="20" y="24" width="2" height="6" fill="#B0735D" />
<rect x="38" y="24" width="2" height="8" fill="#3B2915" />
<rect x="56" y="24" width="2" height="4" fill="#DDC4A9" />
<rect x="58" y="24" width="2" height="6" fill="#3B2915" />
<rect x="40" y="26" width="2" height="2" fill="#3B2915" />
<rect x="40" y="28" width="2" height="4" fill="#B0735D" />
<rect x="42" y="28" width="4" height="2" fill="#3B2915" />
<rect x="46" y="28" width="4" height="2" fill="#B0735D" />
<rect x="50" y="28" width="2" height="2" fill="#DDC4A9" />
<rect x="56" y="28" width="2" height="2" fill="#B0735D" />
<rect x="20" y="30" width="2" height="18" fill="#3B2915" />
<rect x="32" y="30" width="2" height="4" fill="#3B2915" />
<rect x="42" y="30" width="2" height="2" fill="#3B2915" />
<rect x="44" y="30" width="2" height="2" fill="#B0735D" />
<rect x="46" y="30" width="12" height="2" fill="#3B2915" />
<rect x="34" y="32" width="6" height="4" fill="#B0735D" />
<rect x="40" y="32" width="2" height="6" fill="#3B2915" />
<rect x="42" y="32" width="2" height="2" fill="#B0735D" />
<rect x="44" y="32" width="4" height="8" fill="#DDC4A9" />
<rect x="48" y="32" width="2" height="10" fill="#B0735D" />
<rect x="50" y="32" width="2" height="10" fill="#3B2915" />
<rect x="30" y="34" width="2" height="10" fill="#3B2915" />
<rect x="32" y="34" width="2" height="2" fill="#B0735D" />
<rect x="42" y="34" width="2" height="4" fill="#DDC4A9" />
<rect x="32" y="36" width="8" height="2" fill="#3B2915" />
<rect x="32" y="38" width="4" height="4" fill="#B0735D" />
<rect x="36" y="38" width="6" height="8" fill="#DDC4A9" />
<rect x="42" y="38" width="2" height="2" fill="#3B2915" />
<rect x="42" y="40" width="2" height="8" fill="#DDC4A9" />
<rect x="44" y="40" width="2" height="2" fill="#B0735D" />
<rect x="46" y="40" width="2" height="6" fill="#DDC4A9" />
<rect x="22" y="42" width="2" height="6" fill="#B0735D" />
<rect x="32" y="42" width="2" height="2" fill="#B0735D" />
<rect x="34" y="42" width="2" height="4" fill="#DDC4A9" />
<rect x="44" y="42" width="2" height="6" fill="#DDC4A9" />
<rect x="48" y="42" width="2" height="6" fill="#3B2915" />
<rect x="30" y="44" width="2" height="6" fill="#B0735D" />
<rect x="32" y="44" width="2" height="16" fill="#3B2915" />
<rect x="34" y="46" width="2" height="2" fill="#3B2915" />
<rect x="36" y="46" width="4" height="2" fill="#B0735D" />
<rect x="40" y="46" width="2" height="2" fill="#DDC4A9" />
<rect x="46" y="46" width="2" height="2" fill="#B0735D" />
<rect x="22" y="48" width="2" height="12" fill="#3B2915" />
<rect x="36" y="48" width="12" height="2" fill="#3B2915" />
<rect x="30" y="50" width="2" height="8" fill="#DDC4A9" />
<rect x="30" y="58" width="2" height="2" fill="#B0735D" />
<rect x="24" y="60" width="8" height="2" fill="#3B2915" />
</svg>