<?xml version="1.0" encoding="UTF-8" ?>
<svg version="1.1" width="30" height="30" xmlns="http://www.w3.org/2000/svg" shape-rendering="crispEdges">
<rect x="0" y="0" width="4" height="6" fill="#FBF1E5" />
<rect x="4" y="0" width="10" height="2" fill="#FFFFFF" />
<rect x="14" y="0" width="6" height="1" fill="#FBF1E5" />
<rect x="20" y="0" width="1" height="1" fill="#FFF9F5" />
<rect x="21" y="0" width="3" height="9" fill="#FFFFFF" />
<rect x="24" y="0" width="6" height="2" fill="#FBF1E5" />
<rect x="14" y="1" width="3" height="1" fill="#FBF1E5" />
<rect x="17" y="1" width="1" height="1" fill="#FFF9F5" />
<rect x="18" y="1" width="3" height="9" fill="#FFFFFF" />
<rect x="4" y="2" width="1" height="1" fill="#FFF9F5" />
<rect x="5" y="2" width="9" height="1" fill="#FFFFFF" />
<rect x="14" y="2" width="1" height="1" fill="#FFF9F5" />
<rect x="15" y="2" width="3" height="3" fill="#FFFFFF" />
<rect x="24" y="2" width="1" height="1" fill="#FFF9F5" />
<rect x="25" y="2" width="5" height="3" fill="#FBF1E5" />
<rect x="4" y="3" width="1" height="3" fill="#FBF1E5" />
<rect x="5" y="3" width="6" height="1" fill="#FFFFFF" />
<rect x="11" y="3" width="1" height="1" fill="#FFF9F5" />
<rect x="12" y="3" width="3" height="9" fill="#FBF1E5" />
<rect x="24" y="3" width="1" height="6" fill="#FFFFFF" />
<rect x="5" y="4" width="3" height="1" fill="#FFFFFF" />
<rect x="8" y="4" width="1" height="1" fill="#FFF9F5" />
<rect x="9" y="4" width="3" height="9" fill="#FBF1E5" />
<rect x="5" y="5" width="1" height="1" fill="#FFF9F5" />
<rect x="6" y="5" width="3" height="3" fill="#FBF1E5" />
<rect x="15" y="5" width="1" height="1" fill="#FFF9F5" />
<rect x="16" y="5" width="2" height="3" fill="#FFFFFF" />
<rect x="25" y="5" width="1" height="1" fill="#FFF9F5" />
<rect x="26" y="5" width="4" height="2" fill="#FBF1E5" />
<rect x="0" y="6" width="2" height="1" fill="#FBF1E5" />
<rect x="2" y="6" width="1" height="1" fill="#FFF9F5" />
<rect x="3" y="6" width="3" height="9" fill="#FFFFFF" />
<rect x="15" y="6" width="1" height="6" fill="#FBF1E5" />
<rect x="25" y="6" width="1" height="3" fill="#FFFFFF" />
<rect x="0" y="7" width="3" height="9" fill="#FFFFFF" />
<rect x="26" y="7" width="3" height="1" fill="#FBF1E5" />
<rect x="29" y="7" width="1" height="1" fill="#FFF9F5" />
<rect x="6" y="8" width="1" height="1" fill="#FFF9F5" />
<rect x="7" y="8" width="2" height="3" fill="#FBF1E5" />
<rect x="16" y="8" width="1" height="1" fill="#FFF9F5" />
<rect x="17" y="8" width="1" height="3" fill="#FFFFFF" />
<rect x="26" y="8" width="1" height="1" fill="#FFF9F5" />
<rect x="27" y="8" width="3" height="3" fill="#FFFFFF" />
<rect x="6" y="9" width="1" height="6" fill="#FFFFFF" />
<rect x="16" y="9" width="1" height="3" fill="#FBF1E5" />
<rect x="21" y="9" width="2" height="1" fill="#FFFFFF" />
<rect x="23" y="9" width="1" height="1" fill="#FFF9F5" />
<rect x="24" y="9" width="3" height="9" fill="#FBF1E5" />
<rect x="18" y="10" width="2" height="1" fill="#FFFFFF" />
<rect x="20" y="10" width="1" height="1" fill="#FFF9F5" />
<rect x="21" y="10" width="3" height="9" fill="#FBF1E5" />
<rect x="7" y="11" width="1" height="1" fill="#FFF9F5" />
<rect x="8" y="11" width="1" height="3" fill="#FBF1E5" />
<rect x="17" y="11" width="1" height="1" fill="#FFF9F5" />
<rect x="18" y="11" width="3" height="3" fill="#FBF1E5" />
<rect x="27" y="11" width="1" height="1" fill="#FFF9F5" />
<rect x="28" y="11" width="2" height="3" fill="#FFFFFF" />
<rect x="7" y="12" width="1" height="3" fill="#FFFFFF" />
<rect x="12" y="12" width="2" height="1" fill="#FBF1E5" />
<rect x="14" y="12" width="1" height="1" fill="#FFF9F5" />
<rect x="15" y="12" width="3" height="9" fill="#FFFFFF" />
<rect x="27" y="12" width="1" height="6" fill="#FBF1E5" />
<rect x="9" y="13" width="2" height="1" fill="#FBF1E5" />
<rect x="11" y="13" width="1" height="1" fill="#FFF9F5" />
<rect x="12" y="13" width="3" height="9" fill="#FFFFFF" />
<rect x="8" y="14" width="1" height="1" fill="#FFF9F5" />
<rect x="9" y="14" width="3" height="3" fill="#FFFFFF" />
<rect x="18" y="14" width="1" height="1" fill="#FFF9F5" />
<rect x="19" y="14" width="2" height="3" fill="#FBF1E5" />
<rect x="28" y="14" width="1" height="1" fill="#FFF9F5" />
<rect x="29" y="14" width="1" height="3" fill="#FFFFFF" />
<rect x="3" y="15" width="2" height="1" fill="#FFFFFF" />
<rect x="5" y="15" width="1" height="1" fill="#FFF9F5" />
<rect x="6" y="15" width="3" height="9" fill="#FBF1E5" />
<rect x="18" y="15" width="1" height="6" fill="#FFFFFF" />
<rect x="28" y="15" width="1" height="3" fill="#FBF1E5" />
<rect x="0" y="16" width="2" height="1" fill="#FFFFFF" />
<rect x="2" y="16" width="1" height="1" fill="#FFF9F5" />
<rect x="3" y="16" width="3" height="9" fill="#FBF1E5" />
<rect x="0" y="17" width="3" height="3" fill="#FBF1E5" />
<rect x="9" y="17" width="1" height="1" fill="#FFF9F5" />
<rect x="10" y="17" width="2" height="3" fill="#FFFFFF" />
<rect x="19" y="17" width="1" height="1" fill="#FFF9F5" />
<rect x="20" y="17" width="1" height="3" fill="#FBF1E5" />
<rect x="29" y="17" width="1" height="1" fill="#FFF9F5" />
<rect x="9" y="18" width="1" height="6" fill="#FBF1E5" />
<rect x="19" y="18" width="1" height="3" fill="#FFFFFF" />
<rect x="24" y="18" width="2" height="1" fill="#FBF1E5" />
<rect x="26" y="18" width="1" height="1" fill="#FFF9F5" />
<rect x="27" y="18" width="3" height="9" fill="#FFFFFF" />
<rect x="21" y="19" width="2" height="1" fill="#FBF1E5" />
<rect x="23" y="19" width="1" height="1" fill="#FFF9F5" />
<rect x="24" y="19" width="3" height="9" fill="#FFFFFF" />
<rect x="0" y="20" width="1" height="1" fill="#FFF9F5" />
<rect x="1" y="20" width="2" height="3" fill="#FBF1E5" />
<rect x="10" y="20" width="1" height="1" fill="#FFF9F5" />
<rect x="11" y="20" width="1" height="3" fill="#FFFFFF" />
<rect x="20" y="20" width="1" height="1" fill="#FFF9F5" />
<rect x="21" y="20" width="3" height="3" fill="#FFFFFF" />
<rect x="0" y="21" width="1" height="6" fill="#FFFFFF" />
<rect x="10" y="21" width="1" height="3" fill="#FBF1E5" />
<rect x="15" y="21" width="2" height="1" fill="#FFFFFF" />
<rect x="17" y="21" width="1" height="1" fill="#FFF9F5" />
<rect x="18" y="21" width="3" height="9" fill="#FBF1E5" />
<rect x="12" y="22" width="2" height="1" fill="#FFFFFF" />
<rect x="14" y="22" width="1" height="1" fill="#FFF9F5" />
<rect x="15" y="22" width="3" height="8" fill="#FBF1E5" />
<rect x="1" y="23" width="1" height="1" fill="#FFF9F5" />
<rect x="2" y="23" width="1" height="3" fill="#FBF1E5" />
<rect x="11" y="23" width="1" height="1" fill="#FFF9F5" />
<rect x="12" y="23" width="3" height="3" fill="#FBF1E5" />
<rect x="21" y="23" width="1" height="1" fill="#FFF9F5" />
<rect x="22" y="23" width="2" height="3" fill="#FFFFFF" />
<rect x="1" y="24" width="1" height="3" fill="#FFFFFF" />
<rect x="6" y="24" width="2" height="1" fill="#FBF1E5" />
<rect x="8" y="24" width="1" height="1" fill="#FFF9F5" />
<rect x="9" y="24" width="3" height="6" fill="#FFFFFF" />
<rect x="21" y="24" width="1" height="6" fill="#FBF1E5" />
<rect x="3" y="25" width="2" height="1" fill="#FBF1E5" />
<rect x="5" y="25" width="1" height="1" fill="#FFF9F5" />
<rect x="6" y="25" width="3" height="5" fill="#FFFFFF" />
<rect x="2" y="26" width="1" height="1" fill="#FFF9F5" />
<rect x="3" y="26" width="3" height="4" fill="#FFFFFF" />
<rect x="12" y="26" width="1" height="4" fill="#FFFFFF" />
<rect x="13" y="26" width="2" height="3" fill="#FBF1E5" />
<rect x="22" y="26" width="1" height="1" fill="#FFF9F5" />
<rect x="23" y="26" width="1" height="3" fill="#FFFFFF" />
<rect x="0" y="27" width="3" height="3" fill="#FBF1E5" />
<rect x="22" y="27" width="1" height="3" fill="#FBF1E5" />
<rect x="27" y="27" width="2" height="1" fill="#FFFFFF" />
<rect x="29" y="27" width="1" height="1" fill="#FFF9F5" />
<rect x="24" y="28" width="2" height="1" fill="#FFFFFF" />
<rect x="26" y="28" width="1" height="1" fill="#FFF9F5" />
<rect x="27" y="28" width="3" height="2" fill="#FBF1E5" />
<rect x="13" y="29" width="1" height="1" fill="#FFF9F5" />
<rect x="14" y="29" width="1" height="1" fill="#FBF1E5" />
<rect x="23" y="29" width="1" height="1" fill="#FFF9F5" />
<rect x="24" y="29" width="3" height="1" fill="#FBF1E5" />
</svg>