<?xml version="1.0" encoding="UTF-8" ?>
<svg version="1.1" width="40" height="40" xmlns="http://www.w3.org/2000/svg" shape-rendering="crispEdges">
<rect x="14" y="8" width="13" height="7" fill="#FFFFFF" />
<rect x="11" y="9" width="3" height="9" fill="#FFFFFF" />
<rect x="27" y="9" width="3" height="8" fill="#FFFFFF" />
<rect x="10" y="10" width="1" height="11" fill="#FFFFFF" />
<rect x="30" y="10" width="2" height="4" fill="#FFFFFF" />
<rect x="9" y="11" width="1" height="11" fill="#FFFFFF" />
<rect x="32" y="11" width="1" height="3" fill="#FFFFFF" />
<rect x="8" y="12" width="1" height="13" fill="#FFFFFF" />
<rect x="33" y="12" width="1" height="3" fill="#FFFFFF" />
<rect x="7" y="13" width="1" height="13" fill="#FFFFFF" />
<rect x="34" y="13" width="1" height="3" fill="#FFFFFF" />
<rect x="30" y="14" width="1" height="4" fill="#FFFFFF" />
<rect x="6" y="15" width="1" height="13" fill="#FFFFFF" />
<rect x="14" y="15" width="4" height="1" fill="#FFFFFF" />
<rect x="22" y="15" width="5" height="1" fill="#FFFFFF" />
<rect x="14" y="16" width="2" height="1" fill="#FFFFFF" />
<rect x="25" y="16" width="2" height="1" fill="#FFFFFF" />
<rect x="31" y="16" width="2" height="1" fill="#FFFFFF" />
<rect x="5" y="17" width="1" height="7" fill="#FFFFFF" />
<rect x="31" y="17" width="1" height="1" fill="#FFFFFF" />
<rect x="33" y="17" width="1" height="1" fill="#FFFFFF" />
<rect x="4" y="18" width="1" height="5" fill="#FFFFFF" />
<rect x="11" y="18" width="2" height="1" fill="#FFFFFF" />
<rect x="32" y="18" width="1" height="1" fill="#FFFFFF" />
<rect x="34" y="18" width="1" height="2" fill="#FFFFFF" />
<rect x="11" y="19" width="1" height="1" fill="#FFFFFF" />
<rect x="35" y="20" width="1" height="1" fill="#FFFFFF" />
<rect x="36" y="21" width="1" height="7" fill="#FFFFFF" />
<rect x="3" y="23" width="1" height="8" fill="#FFFFFF" />
<rect x="35" y="28" width="1" height="1" fill="#FFFFFF" />
<rect x="34" y="29" width="1" height="1" fill="#FFFFFF" />
<rect x="32" y="30" width="2" height="1" fill="#FFFFFF" />
<rect x="4" y="31" width="1" height="1" fill="#FFFFFF" />
<rect x="30" y="31" width="2" height="1" fill="#FFFFFF" />
<rect x="5" y="32" width="1" height="1" fill="#FFFFFF" />
<rect x="28" y="32" width="2" height="1" fill="#FFFFFF" />
<rect x="6" y="33" width="1" height="1" fill="#FFFFFF" />
<rect x="26" y="33" width="2" height="1" fill="#FFFFFF" />
<rect x="7" y="34" width="9" height="1" fill="#FFFFFF" />
<rect x="22" y="34" width="4" height="1" fill="#FFFFFF" />
<rect x="16" y="35" width="6" height="1" fill="#FFFFFF" />
</svg>